<svg width="25" height="25" viewBox="0 0 25 25" fill="none" xmlns="http://www.w3.org/2000/svg">
<path d="M10.5471 23.0469C10.3399 23.0469 10.1412 22.9646 9.99468 22.8181C9.84816 22.6715 9.76585 22.4728 9.76585 22.2656V14.7539L2.52367 6.78906C2.23858 6.4749 2.0508 6.08475 1.98314 5.66595C1.91547 5.24715 1.97082 4.81772 2.14246 4.42976C2.3141 4.04181 2.59466 3.71201 2.95009 3.4804C3.30552 3.2488 3.72053 3.12533 4.14476 3.125H20.8557C21.2799 3.12533 21.6949 3.2488 22.0504 3.4804C22.4058 3.71201 22.6864 4.04181 22.858 4.42976C23.0296 4.81772 23.085 5.24715 23.0173 5.66595C22.9497 6.08475 22.7619 6.4749 22.4768 6.78906L15.2346 14.7539V19.1406C15.2345 19.2577 15.2082 19.3732 15.1575 19.4786C15.1067 19.5841 15.033 19.6769 14.9416 19.75L11.0354 22.875C10.8969 22.9861 10.7247 23.0467 10.5471 23.0469ZM4.14476 4.6875C4.02319 4.6878 3.90431 4.72334 3.80252 4.7898C3.70072 4.85626 3.62037 4.9508 3.57119 5.06197C3.52201 5.17315 3.5061 5.2962 3.5254 5.41623C3.54469 5.53626 3.59837 5.64812 3.67992 5.73828L11.1252 13.9414C11.2528 14.0817 11.325 14.2636 11.3284 14.4531V20.6406L13.6721 18.75V14.4531C13.6716 14.2582 13.7441 14.0701 13.8752 13.9258L21.3205 5.72266C21.3972 5.63209 21.4467 5.52168 21.4633 5.40417C21.4799 5.28666 21.4629 5.16685 21.4143 5.05859C21.3657 4.95033 21.2875 4.85804 21.1886 4.79237C21.0898 4.72671 20.9743 4.69035 20.8557 4.6875H4.14476Z" fill="white" stroke="white" stroke-width="0.4"/>
</svg>
