<svg width="23" height="23" viewBox="0 0 23 23" fill="none" xmlns="http://www.w3.org/2000/svg">
<path d="M11.4997 21.0664C10.8874 21.0664 10.3106 20.7558 9.90239 20.2145L8.57125 18.4396C8.54463 18.4041 8.43814 18.3598 8.39377 18.3509H7.95006C4.24951 18.3509 1.95996 17.3481 1.95996 12.3608V7.92369C1.95996 4.00129 4.02765 1.93359 7.95006 1.93359H15.0494C18.9718 1.93359 21.0395 4.00129 21.0395 7.92369V12.3608C21.0395 16.2832 18.9718 18.3509 15.0494 18.3509H14.6057C14.5347 18.3509 14.4726 18.3864 14.4282 18.4396L13.0971 20.2145C12.6889 20.7558 12.1121 21.0664 11.4997 21.0664ZM7.95006 3.26473C4.77309 3.26473 3.29109 4.74672 3.29109 7.92369V12.3608C3.29109 16.3719 4.6666 17.0198 7.95006 17.0198H8.39377C8.84635 17.0198 9.36106 17.2771 9.63616 17.641L10.9673 19.4158C11.2779 19.824 11.7216 19.824 12.0322 19.4158L13.3633 17.641C13.6562 17.2505 14.1176 17.0198 14.6057 17.0198H15.0494C18.2264 17.0198 19.7084 15.5378 19.7084 12.3608V7.92369C19.7084 4.74672 18.2264 3.26473 15.0494 3.26473H7.95006Z" fill="#565D6D"/>
<path d="M11.4997 11.4733C11.0028 11.4733 10.6123 11.074 10.6123 10.5859C10.6123 10.0978 11.0116 9.69849 11.4997 9.69849C11.9878 9.69849 12.3871 10.0978 12.3871 10.5859C12.3871 11.074 11.9967 11.4733 11.4997 11.4733Z" fill="#565D6D"/>
<path d="M15.0495 11.4733C14.5526 11.4733 14.1621 11.074 14.1621 10.5859C14.1621 10.0978 14.5614 9.69849 15.0495 9.69849C15.5376 9.69849 15.937 10.0978 15.937 10.5859C15.937 11.074 15.5465 11.4733 15.0495 11.4733Z" fill="#565D6D"/>
<path d="M7.94992 11.4733C7.45297 11.4733 7.0625 11.074 7.0625 10.5859C7.0625 10.0978 7.46184 9.69849 7.94992 9.69849C8.438 9.69849 8.83734 10.0978 8.83734 10.5859C8.83734 11.074 8.44688 11.4733 7.94992 11.4733Z" fill="#565D6D"/>
</svg>
