<svg width="20" height="20" viewBox="0 0 20 20" fill="none" xmlns="http://www.w3.org/2000/svg">
<path d="M19.6328 17.0315C19.6327 18.1359 18.7372 19.0314 17.6328 19.0315H2C0.895519 19.0315 0.000142251 18.1359 0 17.0315V10.9504H2V17.0315H17.6328V10.9504H19.6328V17.0315Z" fill="#565D6D"/>
<path d="M9.03605 14.7257C9.4363 15.221 10.1914 15.221 10.5916 14.7257L15.0314 9.23157C15.5599 8.57761 15.0944 7.60304 14.2536 7.60304H5.37406C4.53327 7.60304 4.06781 8.57761 4.59627 9.23157L9.03605 14.7257Z" fill="#565D6D"/>
<line y1="-1.5" x2="9.8158" y2="-1.5" transform="matrix(-4.36991e-08 -1 -1 4.37237e-08 8.24023 9.81592)" stroke="#565D6D" stroke-width="3"/>
</svg>
